<?xml version="1.0"?>
<svg xmlns="http://www.w3.org/2000/svg" viewBox="0 0 64 64" width="512" height="512"><g id="Outline"><g><path d="M61,14a1,1,0,0,0-1,1v6a5.006,5.006,0,0,1-5,5H53.143a1,1,0,0,0-.76.349L49,30.3V27a1,1,0,0,0-1-1H43.254A11.928,11.928,0,0,0,21,32a1,1,0,0,0,2,0,9.926,9.926,0,0,1,2.994-7.136A9.805,9.805,0,0,1,33.187,22,10.239,10.239,0,0,1,43,32.365a6.867,6.867,0,0,0,5.93,6.554,6,6,0,0,1-4.309,4.837A6.962,6.962,0,0,0,40,42H38.274A7.976,7.976,0,0,0,41,36V34.934a1,1,0,0,0-2,0V36a6,6,0,0,1-12,0V31.046a7.713,7.713,0,0,0,3.873-1.586A7.717,7.717,0,0,0,36.6,32H40a1,1,0,0,0,0-2H36.6a5.724,5.724,0,0,1-4.773-2.555,1,1,0,0,0-1.539-.152l-.123.123a5.719,5.719,0,0,1-3.858,1.677l-.347.012a1,1,0,0,0-.965,1V36a7.976,7.976,0,0,0,2.726,6H26a6.974,6.974,0,0,0-1.333.131A5.994,5.994,0,0,1,23,38V36a1,1,0,0,0-2,0v2a7.983,7.983,0,0,0,1.657,4.852A7,7,0,0,0,19,49v3.764L16.97,48.7A5,5,0,0,0,13,44.1V37a1,1,0,0,0-1-1V33a1,1,0,0,0-1-1H7a1,1,0,0,0-1,1v3a1,1,0,0,0-1,1v7H4a1,1,0,0,0-1,1,5.006,5.006,0,0,0,5,5h2.333l4.744,11.385A1,1,0,0,0,16,62a.987.987,0,0,0,.385-.077,1,1,0,0,0,.538-1.308l-1.944-4.664,2.845-1.067,3.281,6.563a1,1,0,0,0,1.79-.894L21,56.764V49a5,5,0,0,1,4.094-4.908A7,7,0,0,0,32,50h2a7,7,0,0,0,6.906-5.908A5,5,0,0,1,45,49v1H44a1,1,0,0,0-1,1V61a1,1,0,0,0,1,1H56a1,1,0,0,0,1-1V51a1,1,0,0,0-1-1H53V47h7V61a1,1,0,0,0,2,0V46a1,1,0,0,0-1-1H52a1,1,0,0,0-1,1v4H47V49a6.949,6.949,0,0,0-1-3.589A8.009,8.009,0,0,0,51,38a1,1,0,0,0-1-1,4.955,4.955,0,0,1-5-4.635A12.528,12.528,0,0,0,44.206,28H47v5a1,1,0,0,0,1.759.651L53.6,28H55a7.008,7.008,0,0,0,7-7V15A1,1,0,0,0,61,14ZM8,34h2v2H8ZM7,38h4v6H7ZM5.171,46H12a3.006,3.006,0,0,1,2.829,2H8A3.006,3.006,0,0,1,5.171,46Zm9.039,8.1L12.5,50h2.882l1.542,3.085ZM34,48H32a5.008,5.008,0,0,1-4.9-4H29a1,1,0,0,0,.923-.617,7.981,7.981,0,0,0,6.154,0A1,1,0,0,0,37,44h1.9A5.008,5.008,0,0,1,34,48ZM55,60H45V52h2v3a1,1,0,0,0,1,1h4a1,1,0,0,0,1-1V52h2Zm-4-8v2H49V52Z"/><path d="M55,2H33a7.008,7.008,0,0,0-7,7v9a1,1,0,0,0,2,0V9a5.006,5.006,0,0,1,5-5H55a5.006,5.006,0,0,1,5,5v2a1,1,0,0,0,2,0V9A7.008,7.008,0,0,0,55,2Z"/><circle cx="36" cy="34" r="1"/><circle cx="30" cy="34" r="1"/><path d="M40,51a1,1,0,0,0-1,1v9a1,1,0,0,0,2,0V52A1,1,0,0,0,40,51Z"/><path d="M26.11,51.006a1.007,1.007,0,0,0-1.1.884l-1,9a1,1,0,0,0,.884,1.1A1.032,1.032,0,0,0,25,62a1,1,0,0,0,.993-.89l1-9A1,1,0,0,0,26.11,51.006Z"/><path d="M30.553,38.9l2,1a1,1,0,0,0,.894,0l2-1a1,1,0,1,0-.894-1.79L33,37.882,31.447,37.1a1,1,0,0,0-.894,1.79Z"/><circle cx="15" cy="34" r="1"/><circle cx="3" cy="34" r="1"/><circle cx="9" cy="28" r="1"/><path d="M4.05,29.05a1,1,0,1,0,1.414,0A1,1,0,0,0,4.05,29.05Z"/><path d="M12.536,29.05a1,1,0,1,0,1.414,0A1,1,0,0,0,12.536,29.05Z"/><path d="M46.926,19.675a2.9,2.9,0,0,0,2.752,3.8h.013a2.9,2.9,0,0,0,2.741-1.994l1.321-4.025h.279a4,4,0,0,0-.018-8H54l-1,0-5.818.027-7.844-2.9a1,1,0,0,0-1.347.943L38.012,13a1,1,0,0,0,1,1h.005a1,1,0,0,0,.995-1l-.019-4.033L46,11.186l.011,2.318.01,2.3L40.03,18.078l-.008-1.085a1,1,0,0,0-1-.993h-.007a1,1,0,0,0-.993,1.007l.019,2.524a1,1,0,0,0,1.355.927l7.817-2.971.431,0Zm3.6,1.183a.9.9,0,0,1-.848.618h-.005a.9.9,0,0,1-.852-1.177l.927-2.824,1.752-.008h.14Zm3.483-9.4a2,2,0,0,1,.009,4l-.018-4Zm-2.009.009.009,2,.008,2-1,0-2,.01h0l-1,0-.009-2-.009-2Z"/><path d="M34.553,9.9a1,1,0,1,0,.894-1.79l-2-1a1,1,0,1,0-.894,1.79Z"/><path d="M31,13a1,1,0,0,0,1,1h3a1,1,0,0,0,0-2H32A1,1,0,0,0,31,13Z"/><path d="M34.553,16.105l-2,1a1,1,0,0,0,.894,1.79l2-1a1,1,0,1,0-.894-1.79Z"/><path d="M9.926,18.042l-.383,2.234a1,1,0,0,0,1.451,1.054L13,20.275l2.006,1.055a1,1,0,0,0,1.451-1.054l-.383-2.234L17.7,16.458a1,1,0,0,0-.554-1.7L14.9,14.427l-1-2.033a1.04,1.04,0,0,0-1.792,0l-1,2.033-2.244.326a1,1,0,0,0-.554,1.7Zm1.981-1.711a1,1,0,0,0,.753-.547L13,15.1l.34.688a1,1,0,0,0,.753.547l.759.11-.55.536a1,1,0,0,0-.287.884l.129.756-.678-.357a1,1,0,0,0-.932,0l-.678.357.129-.756a1,1,0,0,0-.287-.884l-.55-.536Z"/><path d="M17,22a1,1,0,0,0,1,1h1v1a1,1,0,0,0,2,0V23h1a1,1,0,0,0,0-2H21V20a1,1,0,0,0-2,0v1H18A1,1,0,0,0,17,22Z"/><path d="M3,23H4v1a1,1,0,0,0,2,0V23H7a1,1,0,0,0,0-2H6V20a1,1,0,0,0-2,0v1H3a1,1,0,0,0,0,2Z"/></g></g></svg>
